:FULLY-SPECIFIED
:FORCE-ALL-JOINTS-BE-3DOF
:DEGREES
68
root 5.9168 16.7699 -28.0981 11.3147 2.88941 -3.90006
lfemur -36.3854 15.9698 -18.0186
ltibia 53.4239 0 0
lfoot -21.2457 -10.8335 0
ltoes 31.0983 0 0
rfemur -17.3838 -0.0233136 21.9699
rtibia 30.256 0 0
rfoot -26.0968 -18.4517 0
rtoes -10.5453 0 0
lowerback -3.72591 2.51243 3.28184
upperback -1.47643 3.23595 -0.159163
thorax 0.759507 1.61261 -1.85545
lowerneck -9.9784 -2.41689 2.24913
upperneck -5.69245 -3.37799 1.98165
head -0.128599 -1.70854 0.147214
lclavicle 1.39377e-15 -5.27793e-15 0
lhumerus -40.4607 -11.5333 93.7682
lradius 43.9879 0 0
lwrist 7.91769 0 0
lhand -13.587 1.82514 0
lfingers 7.12502 0 0
lthumb 12.5268 31.4212 0
rclavicle 1.39377e-15 -5.27793e-15 0
rhumerus -38.9845 2.43538 -91.9201
rradius 42.0914 0 0
rwrist 8.58698 0 0
rhand -25.1765 -21.6439 0
rfingers 7.12502 0 0
rthumb 1.34107 -51.6195 0
69
root 5.92845 16.7715 -28.0785 11.4554 2.92707 -4.01053
lfemur -37.0835 16.2201 -17.8758
ltibia 53.6475 0 0
lfoot -21.1995 -9.99438 0
ltoes 30.1557 0 0
rfemur -17.3845 0.154484 22.0476
rtibia 30.1228 0 0
rfoot -25.8063 -18.665 0
rtoes -11.1863 0 0
lowerback -3.76717 2.56987 3.25738
upperback -1.52348 3.31286 -0.119937
thorax 0.735199 1.65021 -1.79738
lowerneck -10.0077 -2.44342 2.33389
upperneck -5.74418 -3.42177 1.92275
head -0.142584 -1.73273 0.114714
lclavicle -4.84251e-15 -9.36315e-15 0
lhumerus -40.5218 -11.0847 93.5848
lradius 44.0043 0 0
lwrist 8.02412 0 0
lhand -14.2178 1.69063 0
lfingers 7.12502 0 0
lthumb 11.9187 31.325 0
rclavicle -4.84251e-15 -9.36315e-15 0
rhumerus -38.7603 2.75138 -91.8575
rradius 42.0156 0 0
rwrist 8.98587 0 0
rhand -25.2363 -21.5133 0
rfingers 7.12502 0 0
rthumb 1.28335 -51.4893 0
70
root 5.94146 16.7726 -28.0567 11.6058 2.96985 -4.12082
lfemur -37.7367 16.3942 -17.7065
ltibia 53.7513 0 0
lfoot -21.1375 -9.05942 0
ltoes 29.1949 0 0
rfemur -17.3853 0.318118 22.1227
rtibia 29.9858 0 0
rfoot -25.5745 -18.8713 0
rtoes -11.7036 0 0
lowerback -3.83037 2.63069 3.22652
upperback -1.57769 3.39389 -0.0832214
thorax 0.715447 1.68993 -1.73701
lowerneck -10.0404 -2.4763 2.41955
upperneck -5.78301 -3.47446 1.86792
head -0.152085 -1.76115 0.0828328
lclavicle -9.33595e-15 -1.25356e-14 0
lhumerus -40.5977 -10.6755 93.4048
lradius 44.0222 0 0
lwrist 8.12786 0 0
lhand -14.7444 1.57548 0
lfingers 7.12502 0 0
lthumb 11.411 31.2419 0
rclavicle -9.33595e-15 -1.25356e-14 0
rhumerus -38.546 3.02398 -91.7847
rradius 41.9633 0 0
rwrist 9.3029 0 0
rhand -25.2801 -21.4135 0
rfingers 7.12502 0 0
rthumb 1.24103 -51.3897 0
71
root 5.95592 16.7725 -28.0329 11.762 3.02456 -4.23384
lfemur -38.3353 16.4833 -17.4987
ltibia 53.7365 0 0
lfoot -21.0139 -8.06127 0
ltoes 28.2401 0 0
rfemur -17.3841 0.448621 22.1998
rtibia 29.8487 0 0
rfoot -25.4326 -19.0615 0
rtoes -12.0519 0 0
lowerback -3.91329 2.69625 3.19595
upperback -1.63846 3.48055 -0.04948
thorax 0.699906 1.73256 -1.67835
lowerneck -10.077 -2.51901 2.50017
upperneck -5.80727 -3.54008 1.82153
head -0.15636 -1.79564 0.0536981
lclavicle -1.10325e-14 -1.41137e-14 0
lhumerus -40.688 -10.3323 93.2334
lradius 44.0463 0 0
lwrist 8.22233 0 0
lhand -15.1037 1.48866 0
lfingers 7.12502 0 0
lthumb 11.0647 31.177 0
rclavicle -1.10325e-14 -1.41137e-14 0
rhumerus -38.3535 3.24127 -91.7011
rradius 41.9544 0 0
rwrist 9.48337 0 0
rhand -25.2967 -21.365 0
rfingers 7.12502 0 0
rthumb 1.22504 -51.3413 0
72
root 5.97117 16.7717 -28.0072 11.9685 3.08673 -4.34376
lfemur -38.9249 16.4972 -17.2747
ltibia 53.5617 0 0
lfoot -20.8426 -6.87954 0
ltoes 27.217 0 0
rfemur -17.4295 0.605066 22.2763
rtibia 29.7147 0 0
rfoot -25.372 -19.2889 0
rtoes -12.2182 0 0
lowerback -4.05601 2.76743 3.15123
upperback -1.71766 3.57337 -0.0232376
thorax 0.698154 1.77842 -1.61597
lowerneck -10.1226 -2.57019 2.58268
upperneck -5.81543 -3.61775 1.78296
head -0.154237 -1.83586 0.0259442
lclavicle -9.20751e-15 -1.40726e-14 0
lhumerus -40.795 -10.0544 93.0649
lradius 44.0699 0 0
lwrist 8.30758 0 0
lhand -15.3288 1.42175 0
lfingers 7.12502 0 0
lthumb 10.8478 31.1243 0
rclavicle -9.20751e-15 -1.40726e-14 0
rhumerus -38.1684 3.39883 -91.6153
rradius 41.9736 0 0
rwrist 9.52461 0 0
rhand -25.3064 -21.3888 0
rfingers 7.12502 0 0
rthumb 1.21572 -51.3653 0
73
root 5.9869 16.7709 -27.9796 12.2436 3.1488 -4.44604
lfemur -39.5292 16.4473 -17.0525
ltibia 53.2122 0 0
lfoot -20.6689 -5.44504 0
ltoes 26.0791 0 0
rfemur -17.5398 0.824003 22.3472
rtibia 29.5813 0 0
rfoot -25.3621 -19.5793 0
rtoes -12.2385 0 0
lowerback -4.27387 2.84332 3.0816
upperback -1.81982 3.67118 -0.00558985
thorax 0.713692 1.82691 -1.54448
lowerneck -10.1784 -2.62629 2.6747
upperneck -5.80844 -3.70361 1.74808
head -0.145985 -1.88003 -0.00277521
lclavicle -4.55637e-15 -1.30097e-14 0
lhumerus -40.92 -9.81796 92.8928
lradius 44.0863 0 0
lwrist 8.38946 0 0
lhand -15.4869 1.36398 0
lfingers 7.12502 0 0
lthumb 10.6954 31.0772 0
rclavicle -4.55637e-15 -1.30097e-14 0
rhumerus -37.9755 3.50577 -91.5306
rradius 41.9982 0 0
rwrist 9.47434 0 0
rhand -25.3259 -21.4735 0
rfingers 7.12502 0 0
rthumb 1.19679 -51.4506 0
74
root 6.00373 16.7697 -27.9498 12.5442 3.21299 -4.54554
lfemur -40.1062 16.3264 -16.8136
ltibia 52.7288 0 0
lfoot -20.4942 -3.8673 0
ltoes 24.8926 0 0
rfemur -17.6671 1.05268 22.4136
rtibia 29.4444 0 0
rfoot -25.4013 -19.8825 0
rtoes -12.141 0 0
lowerback -4.52753 2.92256 2.99927
upperback -1.93324 3.77295 0.00814283
thorax 0.737056 1.87745 -1.468
lowerneck -10.2391 -2.68752 2.77126
upperneck -5.7884 -3.79719 1.71608
head -0.133023 -1.9279 -0.031804
lclavicle 1.84493e-15 -1.11771e-14 0
lhumerus -41.0606 -9.61474 92.721
lradius 44.1009 0 0
lwrist 8.47013 0 0
lhand -15.566 1.32078 0
lfingers 7.12502 0 0
lthumb 10.6193 31.04 0
rclavicle 1.84493e-15 -1.11771e-14 0
rhumerus -37.785 3.57048 -91.4384
rradius 42.0368 0 0
rwrist 9.35346 0 0
rhand -25.3389 -21.5915 0
rfingers 7.12502 0 0
rthumb 1.18427 -51.569 0
75
root 6.02231 16.768 -27.9178 12.8269 3.28151 -4.64713
lfemur -40.6132 16.1276 -16.5399
ltibia 52.1526 0 0
lfoot -20.3197 -2.25579 0
ltoes 23.724 0 0
rfemur -17.7636 1.23835 22.4766
rtibia 29.2995 0 0
rfoot -25.4875 -20.1482 0
rtoes -11.9539 0 0
lowerback -4.77764 3.00384 2.91646
upperback -2.04624 3.87765 0.02264
thorax 0.758782 1.92945 -1.39061
lowerneck -10.2995 -2.75407 2.86742
upperneck -5.7574 -3.89803 1.68613
head -0.116771 -1.97921 -0.0604859
lclavicle 8.92038e-15 -8.82708e-15 0
lhumerus -41.2148 -9.43656 92.5535
lradius 44.119 0 0
lwrist 8.55175 0 0
lhand -15.5538 1.29758 0
lfingers 7.12502 0 0
lthumb 10.631 31.0171 0
rclavicle 8.92038e-15 -8.82708e-15 0
rhumerus -37.6073 3.60137 -91.3306
rradius 42.0982 0 0
rwrist 9.18289 0 0
rhand -25.3286 -21.7149 0
rfingers 7.12502 0 0
rthumb 1.19418 -51.6927 0
76
root 6.04327 16.7655 -27.8834 13.0484 3.35657 -4.75568
lfemur -41.0081 15.844 -16.2129
ltibia 51.5247 0 0
lfoot -20.1468 -0.720032 0
ltoes 22.6394 0 0
rfemur -17.7812 1.32827 22.5372
rtibia 29.1423 0 0
rfoot -25.619 -20.326 0
rtoes -11.7051 0 0
lowerback -4.98488 3.08582 2.84538
upperback -2.14716 3.98422 0.0425812
thorax 0.769408 1.98233 -1.31642
lowerneck -10.3542 -2.82614 2.95822
upperneck -5.71752 -4.00565 1.6574
head -0.0986461 -2.03369 -0.0881645
lclavicle 1.5594e-14 -6.21158e-15 0
lhumerus -41.3803 -9.27521 92.3942
lradius 44.1456 0 0
lwrist 8.63646 0 0
lhand -15.4384 1.2998 0
lfingers 7.12502 0 0
lthumb 10.7423 31.0127 0
rclavicle 1.5594e-14 -6.21158e-15 0
rhumerus -37.4528 3.60684 -91.1988
rradius 42.1907 0 0
rwrist 8.98352 0 0
rhand -25.2786 -21.8159 0
rfingers 7.12502 0 0
rthumb 1.24252 -51.7934 0
77
root 6.06724 16.762 -27.8464 13.1656 3.44037 -4.87604
lfemur -41.2485 15.4686 -15.8143
ltibia 50.8861 0 0
lfoot -19.9768 0.630479 0
ltoes 21.7051 0 0
rfemur -17.672 1.26967 22.5966
rtibia 28.9686 0 0
rfoot -25.7939 -20.3658 0
rtoes -11.4229 0 0
lowerback -5.10989 3.16718 2.79823
upperback -2.2243 4.09165 0.072646
thorax 0.759471 2.0355 -1.24953
lowerneck -10.3982 -2.90394 3.03869
upperneck -5.67086 -4.11959 1.62908
head -0.0800678 -2.09109 -0.114184
lclavicle 2.07898e-14 -3.58276e-15 0
lhumerus -41.5548 -9.12252 92.2471
lradius 44.1862 0 0
lwrist 8.72643 0 0
lhand -15.2076 1.33286 0
lfingers 7.12502 0 0
lthumb 10.9648 31.0313 0
rclavicle 2.07898e-14 -3.58276e-15 0
rhumerus -37.3318 3.59528 -91.0346
rradius 42.3231 0 0
rwrist 8.77627 0 0
rhand -25.1721 -21.8668 0
rfingers 7.12502 0 0
rthumb 1.34533 -51.8432 0
78
root 6.09485 16.7571 -27.8067 13.1351 3.53513 -5.01309
lfemur -41.2921 14.9944 -15.326
ltibia 50.2778 0 0
lfoot -19.8111 1.68624 0
ltoes 20.9875 0 0
rfemur -17.3881 1.00982 22.6557
rtibia 28.7739 0 0
rfoot -26.0104 -20.2173 0
rtoes -11.1354 0 0
lowerback -5.11333 3.24657 2.78724
upperback -2.266 4.19889 0.117514
thorax 0.719507 2.08838 -1.19404
lowerneck -10.4261 -2.98765 3.10389
upperneck -5.6195 -4.23938 1.60034
head -0.0624547 -2.15114 -0.137887
lclavicle 2.34317e-14 -1.19271e-15 0
lhumerus -41.7361 -8.97027 92.116
lradius 44.246 0 0
lwrist 8.8238 0 0
lhand -14.8493 1.40219 0
lfingers 7.12502 0 0
lthumb 11.3101 31.0772 0
rclavicle 2.34317e-14 -1.19271e-15 0
rhumerus -37.2547 3.57508 -90.8297
rradius 42.504 0 0
rwrist 8.58204 0 0
rhand -24.9927 -21.8398 0
rfingers 7.12502 0 0
rthumb 1.5186 -51.8141 0
79
root 6.12592 16.7507 -27.7634 12.9224 3.62699 -5.17768
lfemur -41.0816 14.4304 -14.7146
ltibia 49.6548 0 0
lfoot -19.6455 2.45167 0
ltoes 20.5731 0 0
rfemur -16.8467 0.524906 22.7355
rtibia 28.474 0 0
rfoot -26.3158 -19.8693 0
rtoes -10.7526 0 0
lowerback -4.96312 3.33101 2.82389
upperback -2.26214 4.31583 0.177455
thorax 0.64326 2.14583 -1.15726
lowerneck -10.4392 -3.07914 3.15536
upperneck -5.56658 -4.3676 1.57252
head -0.0466445 -2.21516 -0.15915
lclavicle 2.2883e-14 1.31644e-15 0
lhumerus -41.9251 -8.83454 91.998
lradius 44.3247 0 0
lwrist 8.91746 0 0
lhand -14.3321 1.52231 0
lfingers 7.12502 0 0
lthumb 11.8086 31.165 0
rclavicle 2.2883e-14 1.31644e-15 0
rhumerus -37.2129 3.55328 -90.6033
rradius 42.7326 0 0
rwrist 8.40723 0 0
rhand -24.7468 -21.7596 0
rfingers 7.12502 0 0
rthumb 1.75606 -51.7317 0
80
root 6.15984 16.7428 -27.7165 12.5545 3.70936 -5.36911
lfemur -40.6355 13.786 -13.9852
ltibia 48.9656 0 0
lfoot -19.4775 3.02557 0
ltoes 20.4317 0 0
rfemur -16.063 -0.146116 22.8419
rtibia 28.0446 0 0
rfoot -26.7276 -19.3628 0
rtoes -10.2196 0 0
lowerback -4.68354 3.42402 2.90115
upperback -2.21974 4.44667 0.2484
thorax 0.537057 2.20998 -1.13798
lowerneck -10.4425 -3.17883 3.19803
upperneck -5.51129 -4.50552 1.54679
head -0.0316554 -2.28382 -0.178514
lclavicle 1.98878e-14 4.28806e-15 0
lhumerus -42.1239 -8.72798 91.8885
lradius 44.4177 0 0
lwrist 9.00178 0 0
lhand -13.6563 1.69326 0
lfingers 7.12502 0 0
lthumb 12.4602 31.2958 0
rclavicle 1.98878e-14 4.28806e-15 0
rhumerus -37.1945 3.52474 -90.3692
rradius 43.0011 0 0
rwrist 8.2354 0 0
rhand -24.4515 -21.6593 0
rfingers 7.12502 0 0
rthumb 2.04136 -51.6296 0
81
root 6.19656 16.7339 -27.6668 12.0803 3.79537 -5.5749
lfemur -40.0252 13.0542 -13.1773
ltibia 48.2416 0 0
lfoot -19.3107 3.44002 0
ltoes 20.4549 0 0
rfemur -15.1356 -0.961859 22.9537
rtibia 27.5715 0 0
rfoot -27.1989 -18.7257 0
rtoes -9.61699 0 0
lowerback -4.31979 3.51902 3.00347
upperback -2.1528 4.5819 0.328519
thorax 0.410309 2.27618 -1.12752
lowerneck -10.4366 -3.28483 3.23199
upperneck -5.44979 -4.65072 1.5221
head -0.0161767 -2.35589 -0.196324
lclavicle 1.54416e-14 7.44832e-15 0
lhumerus -42.3325 -8.63723 91.7893
lradius 44.5233 0 0
lwrist 9.08718 0 0
lhand -12.8574 1.89868 0
lfingers 7.12502 0 0
lthumb 13.2305 31.4535 0
rclavicle 1.54416e-14 7.44832e-15 0
rhumerus -37.2045 3.47965 -90.111
rradius 43.3073 0 0
rwrist 8.05318 0 0
rhand -24.1056 -21.5233 0
rfingers 7.12502 0 0
rthumb 2.37547 -51.4914 0
